<?xml version="1.0" encoding="UTF-8" standalone="no"?>
<!-- Created with Inkscape (http://www.inkscape.org/) -->

<svg
   width="210mm"
   height="297mm"
   viewBox="0 0 210 297"
   version="1.1"
   id="svg1"
   xml:space="preserve"
   inkscape:version="1.4 (86a8ad7, 2024-10-11)"
   sodipodi:docname="JN_good Logo.svg"
   xmlns:inkscape="http://www.inkscape.org/namespaces/inkscape"
   xmlns:sodipodi="http://sodipodi.sourceforge.net/DTD/sodipodi-0.dtd"
   xmlns="http://www.w3.org/2000/svg"
   xmlns:svg="http://www.w3.org/2000/svg"><sodipodi:namedview
     id="namedview1"
     pagecolor="#505050"
     bordercolor="#eeeeee"
     borderopacity="1"
     inkscape:showpageshadow="0"
     inkscape:pageopacity="0"
     inkscape:pagecheckerboard="0"
     inkscape:deskcolor="#505050"
     inkscape:document-units="mm"
     showguides="false"
     inkscape:zoom="1.2582645"
     inkscape:cx="422.8046"
     inkscape:cy="556.71921"
     inkscape:window-width="2560"
     inkscape:window-height="1494"
     inkscape:window-x="-11"
     inkscape:window-y="-11"
     inkscape:window-maximized="1"
     inkscape:current-layer="layer1"
     showgrid="false" /><defs
     id="defs1"><filter
       inkscape:collect="always"
       style="color-interpolation-filters:sRGB"
       id="filter1"
       x="-0.053346237"
       y="-0.042737317"
       width="1.1066925"
       height="1.0854746"><feGaussianBlur
         inkscape:collect="always"
         stdDeviation="3.6750096"
         id="feGaussianBlur1" /></filter></defs><g
     inkscape:label="Layer 1"
     inkscape:groupmode="layer"
     id="layer1"><ellipse
       style="fill:#000000;fill-opacity:1;stroke-width:14.0042;stroke-linecap:round;stroke-linejoin:round"
       id="path36"
       cx="104.43087"
       cy="150.61681"
       rx="103.62004"
       ry="107.31096" /><path
       style="fill:#007b9a;fill-opacity:1;stroke-width:14.0042;stroke-linecap:round;stroke-linejoin:round"
       d="m 93.382773,149.01863 c 0,0 0.81392,-0.54131 1.569707,-0.24058 0.755779,0.30073 3.023131,3.72903 3.023131,3.72903 0,0 1.395293,2.10509 1.162747,3.36815 -0.232555,1.26306 -0.523241,5.95441 -0.523241,5.95441 0,0 -1.162739,-0.78189 -1.68598,-2.10509 -0.523233,-1.32321 -0.81392,-2.52612 0,-2.88699 0.813928,-0.36088 -1.569697,-3.60874 -1.569697,-3.60874 L 93.324632,150.823 Z"
       id="path40-7" /><path
       style="fill:#006b99;fill-opacity:1;stroke-width:14.0042;stroke-linecap:round;stroke-linejoin:round"
       d="m 104.21737,228.87151 c 0,0 -0.98662,1.53105 5.91973,1.19082 6.90635,-0.34024 14.14157,-1.8713 11.67501,-0.68048 -2.46655,1.19083 -13.97713,4.93341 -15.29262,7.31505 -1.3155,2.38165 5.26197,-0.51034 5.26197,-0.51034 0,0 -1.97324,3.23222 -7.56409,6.12422 -5.590854,2.892 -10.523962,3.74259 -10.523962,3.74259 l 7.564102,-11.73811 z"
       id="path38-9" /><path
       style="fill:#006e9b;fill-opacity:1;stroke-width:14.0042;stroke-linecap:round;stroke-linejoin:round"
       d="m 91.450552,252.25515 20.061288,-7.31505 c 0,0 3.78206,0.85059 7.89299,-2.21153 4.11092,-3.06212 9.70177,-6.63458 9.70177,-6.63458 l 5.91973,5.10352 c 0,0 0.49331,-5.9541 2.13768,-4.59316 1.64437,1.36094 3.61761,2.892 3.61761,2.892 l 1.47994,-3.06212 1.47992,1.0207 2.79543,0.17012 -1.15105,-2.04141 4.11092,0.68047 1.97324,-2.55176 6.2486,2.21152 1.64437,-2.55176 0.82219,2.55176 c 0,0 -9.3729,6.12424 -17.92362,9.6967 -8.55072,3.57247 -20.39018,6.63458 -25.98103,6.97481 -5.59087,0.34024 -15.62152,0.51036 -15.62152,0.51036 z"
       id="path37-0"
       sodipodi:nodetypes="ccsccsccccccccccsscc" /><ellipse
       style="fill:#000000;fill-opacity:1;stroke-width:14.8196;stroke-linecap:round;stroke-linejoin:round"
       id="path1"
       cx="50.845409"
       cy="127.35123"
       rx="15.817386"
       ry="16.363808" /><path
       style="fill:#006e9a;fill-opacity:1;stroke-width:14.0042;stroke-linecap:round;stroke-linejoin:round;filter:url(#filter1)"
       d="m 9.2993047,118.39016 c 0,0 8.6009033,-23.854472 17.0010003,-33.506844 0.786733,-0.904018 1.512544,-2.2197 2.184563,-2.991724 7.452339,-8.561337 8.289483,-8.956223 12.234008,-11.702313 4.30818,-2.999259 8.2853,-6.34515 8.2853,-6.34515 l 1.829227,2.560324 0.753203,-3.116916 c 0,0 4.41165,1.224502 5.272469,1.335822 0.86081,0.111318 3.335634,-0.77923 3.335634,-1.781097 0,-1.001864 3.443241,1.781097 3.443241,1.224505 0,-0.556593 -0.86081,-4.007463 -0.86081,-4.007463 l 4.842059,2.782958 0.215196,-3.228233 c 0,0 4.411658,2.449006 4.949665,3.784826 0.538008,1.335822 1.183613,-5.009328 1.183613,-5.009328 l 7.639686,4.452735 c 0,0 9.791724,-7.903605 12.912154,-8.460198 3.120436,-0.556592 19.260627,-6.122514 25.178677,-8.460201 5.91808,-2.337686 4.41166,-1.558459 3.12044,3.116917 -1.29121,4.675372 -6.45607,14.471394 -6.45607,14.471394 0,0 20.22904,-0.222637 21.30505,-1.001867 1.07602,-0.779229 -1.39882,2.560324 -4.84206,6.679107 -3.44324,4.118781 -11.62093,13.469528 -11.62093,13.469528 0,0 9.68411,7.12438 10.54492,8.126242 0.86081,1.001872 4.19645,6.233833 4.19645,6.233833 0,0 1.82922,-3.450866 2.47483,-2.894273 0.64561,0.556584 -1.29122,0 1.39881,5.677239 2.69004,5.677237 4.30405,8.126247 8.28529,10.686567 3.98125,2.56032 20.33665,12.46766 20.33665,12.46766 0,0 2.79763,2.56033 0.3228,4.56405 -2.47483,2.00374 -5.91807,3.78483 -5.91807,3.78483 0,0 -6.45608,1.00186 -9.25371,3.0056 -2.79763,2.00373 -4.41165,4.34142 -6.13326,3.78483 -1.72162,-0.5566 -4.19646,-0.89055 -4.19646,-0.89055 l 4.73446,-3.33955 -3.65844,-3.22824 c 0,0 -0.7532,0.66791 -2.47483,1.44714 -1.72162,0.77923 -4.84205,1.33582 -4.84205,1.33582 l 0.3228,-3.89614 c 0,0 -2.69004,1.89241 -3.76604,1.33582 -1.07602,-0.55659 -3.22804,-3.22823 -5.16487,-1.55846 -1.93682,1.66978 -2.47483,3.56219 -3.22803,2.00373 -0.75322,-1.55845 -0.96842,-1.44714 -3.55085,-0.44527 -2.58243,1.00186 -1.82922,-1.55846 -1.82922,-1.55846 l -1.39882,-1.33582 -1.72162,2.33769 -5.91805,3.89614 h 3.98124 v 3.45087 h 3.22802 l -2.04441,2.89428 1.07601,0.66792 c 0,0 -2.04442,1.2245 -0.86082,2.00372 1.18362,0.77923 1.72163,2.56033 1.39882,3.11692 -0.3228,0.5566 1.61403,1.33582 1.61403,1.33582 l -1.82923,6.90174 4.08884,-0.77922 -3.33563,3.89614 c 0,0 0,1.33582 2.90523,0.33395 2.90524,-1.00187 4.62686,-2.11504 4.73446,-2.33768 0.1076,-0.22264 0.3228,2.00373 -1.18362,4.67537 -1.50641,2.67165 -3.12044,4.11879 -4.19644,4.11879 -1.07602,0 -4.08886,0.77922 -7.10168,-1.33583 -3.01283,-2.11505 -4.08885,-3.45087 -7.85489,-11.13184 -3.76604,-7.68097 -6.456071,-16.25249 -11.082923,-16.58645 -4.626854,-0.33395 -8.070095,0.33396 -9.14611,2.33769 -1.076015,2.00373 -1.291211,6.0112 -1.291211,6.0112 0,0 1.936816,-3.33955 4.519247,-3.45088 2.582431,-0.11131 3.228036,0.89056 1.506425,2.56033 -1.72163,1.66978 -2.690038,3.22823 -2.690038,3.22823 0,0 3.873651,-2.00373 4.626854,-1.66978 0.753212,0.33396 -0.645605,3.11692 -1.506416,6.0112 -0.86081,2.89428 1.291211,2.78296 1.291211,2.78296 l -0.537998,2.33769 1.936816,-0.11132 c 0,0 -0.753203,2.22637 -1.506416,2.89428 -0.753212,0.66791 1.183613,1.11319 1.183613,1.11319 0,0 -2.367226,1.33581 -1.506415,1.78109 0.86081,0.44527 4.088846,1.2245 4.088846,1.2245 l -2.044423,2.22638 5.272458,0.11131 c 0,0 1.183622,0 -2.367226,1.44714 -3.550838,1.44714 -0.645604,0.66791 -3.766042,2.78296 -3.120439,2.11505 -2.797636,1.33582 -3.012832,0.11132 -0.215205,-1.22451 -1.506424,-2.44901 -2.15203,-1.89242 -0.645605,0.5566 -1.829218,2.44901 -2.582431,2.33769 -0.753203,-0.11131 -1.076015,-3.33955 -1.72162,-2.67164 -0.645606,0.66791 -1.936826,3.45087 -4.196445,2.78296 -2.259628,-0.66791 -7.101687,-0.22263 -7.101687,-0.22263 0,0 -0.645605,0 0.107598,-2.00374 0.753213,-2.00373 -0.968408,-2.67164 -2.797635,-1.78109 -1.829219,0.89055 -2.367226,2.449 -3.98124,2.11505 -1.614023,-0.33396 -4.088855,-1.2245 -3.658446,-2.11505 0.430401,-0.89055 3.012832,-3.45088 3.012832,-3.45088 0,0 1.506424,-0.89054 0.215204,-0.89054 -1.291211,0 -5.810467,1.33582 -6.886482,1.89241 -1.076015,0.5566 -0.215204,1.33582 -3.766043,2.56032 -3.55084,1.2245 -10.43733,3.67352 -10.43733,3.67352 0,0 -3.443241,2.56031 -3.98124,3.78482 -0.538008,1.2245 1.614014,3.22823 4.734452,5.00933 3.120438,1.78109 14.203374,8.90547 14.203374,8.90547 l 6.778875,4.78669 3.873651,7.12438 2.797635,5.56593 c 0,0 0.322803,-1.66978 1.291211,-1.44714 0.968408,0.22263 7.639694,7.68097 7.639694,7.68097 l 4.734453,4.11878 2.905233,1.11318 -8.930905,10.68657 -7.316883,9.35075 c 0,0 11.082926,-1.11319 14.095767,-1.44714 3.012831,-0.33395 7.316883,0.11132 7.316883,0.11132 0,0 -5.918065,12.35634 -6.56368,13.9148 -0.645605,1.55846 -0.822184,2.27888 -0.822184,2.27888 l -12.95078,-3.39207 c 0,0 -17.254831,-7.37213 -22.204488,-11.60223 0,0 -0.929782,0.24776 -8.354272,-5.98608 -7.42449,-6.23383 -13.557763,-11.57711 -19.583435,-20.48259 -6.02567,-8.90547 -11.836139,-22.70895 -11.836139,-22.70895 0,0 -3.5110489,-11.50597 -5.1648603,-17.22211 -2.4951342,-8.62404 -1.3715729,-23.58457 -1.3467775,-23.52044 0,0 -0.1596409,-2.11505 0.7011693,-11.4658 0.8608103,-9.35074 3.8736462,-16.25248 3.8736462,-16.25248 z"
       id="path35"
       sodipodi:nodetypes="cssscccssscccsccssscsscscssscscsscccsccsssscccccccccssccccsssssssscsscsscccscscccssssssscsssscssscssccccscccccscscccsscscsc" /><path
       style="fill:#1a1a1a;fill-opacity:1;stroke-width:14.0042;stroke-linecap:round;stroke-linejoin:round"
       d="m 104.79297,62.609066 c 0,0 -7.101674,2.282027 -6.294671,1.057526 0.807011,-1.224503 7.693491,-6.011195 7.693491,-6.011195 l 8.93091,-2.83862 c 0,0 -1.61402,4.786693 -4.41165,8.460201 -2.79764,3.673508 -5.38007,7.847947 -5.38007,7.847947 0,0 -2.42102,-1.113184 -6.50987,-0.779229 -4.088852,0.333957 -9.737921,1.168846 -9.737921,1.168846 0,0 9.41511,-4.007464 11.244341,-5.176309 1.82922,-1.168843 4.46544,-3.729167 4.46544,-3.729167 z"
       id="path34" /><path
       style="display:inline;fill:#000000;fill-opacity:1;stroke-width:14.0042;stroke-linecap:round;stroke-linejoin:round"
       d="m 112.42053,138.60963 c 0,0 2.61827,3.51982 1.97822,4.40798 -0.45819,0.63581 -1.30072,0.52447 0.60868,3.69957 1.95633,3.25314 3.11952,6.2184 1.21738,4.80154 -1.90215,-1.41685 -3.80428,-4.64412 -3.80428,-4.64412 l -0.30435,-5.50998 z"
       id="path33"
       sodipodi:nodetypes="csssccc" /></g><g
     inkscape:groupmode="layer"
     id="layer6"
     inkscape:label="eyes"><path
       style="display:inline;fill:#007a98;fill-opacity:1;stroke-width:14.0042;stroke-linecap:round;stroke-linejoin:round"
       d="m 68.926157,181.40924 4.439792,4.93341 c 0,0 5.261983,-0.17012 5.755297,2.21152 0.493305,2.38165 2.959859,7.99553 2.959859,7.99553 0,0 -5.919726,-3.9127 -8.221842,-4.42306 -2.302115,-0.51035 -3.946487,-7.31505 -3.946487,-7.31505 z"
       id="path39-4" /><path
       style="display:inline;fill:#000000;fill-opacity:1;stroke-width:14.0042;stroke-linecap:round;stroke-linejoin:round"
       d="m 126.97178,102.91296 c 0,0 5.70642,0.70842 8.59768,4.95897 2.89125,4.25056 3.80428,8.50112 2.51082,7.47784 -1.29346,-1.02328 -1.74997,-3.22728 -4.33687,-3.85699 -2.58692,-0.62971 -4.41297,-0.62971 -5.326,-3.62085 -0.91303,-2.99112 -1.44563,-4.95897 -1.44563,-4.95897 z"
       id="path32" /></g><g
     inkscape:groupmode="layer"
     id="layer4"
     inkscape:label="SUN"
     style="display:inline"><path
       style="fill:#000000;fill-opacity:1;stroke-width:14.0042;stroke-linecap:round;stroke-linejoin:round"
       d="m 51.610989,106.58921 3.690148,1.29878 c 0,0 -0.266296,-1.61364 -0.07612,-2.20399 0.190217,-0.59037 1.293462,-1.61365 1.293462,-1.61365 l -0.03806,-1.81042 -0.456522,-1.18071 -1.407581,2.00721 c 0,0 -2.701033,1.22007 -2.85321,1.65299 -0.152168,0.43293 -0.152168,1.84979 -0.152168,1.84979 z"
       id="path18-9-7" /><ellipse
       style="fill:#000000;fill-opacity:1;stroke-width:14.8196;stroke-linecap:round;stroke-linejoin:round"
       id="path1-8-7"
       cx="48.805889"
       cy="124.51897"
       rx="15.817386"
       ry="16.363808" /><text
       xml:space="preserve"
       style="font-size:18.2565px;text-align:start;writing-mode:lr-tb;direction:ltr;text-anchor:start;fill:#006b99;fill-opacity:1;stroke-width:33.7782;stroke-linecap:round;stroke-linejoin:round"
       x="45.719898"
       y="129.20773"
       id="text4-7-3"
       transform="scale(0.98316225,1.0171261)"><tspan
         sodipodi:role="line"
         id="tspan4-4-3"
         style="fill:#006b99;fill-opacity:1;stroke-width:33.7782"
         x="45.719898"
         y="129.20773">J</tspan></text><path
       style="fill:#000000;fill-opacity:1;stroke-width:14.0042;stroke-linecap:round;stroke-linejoin:round"
       d="m 37.292564,138.21114 4.088855,2.89428 -1.72162,2.44901 c 0,0 -4.088856,0 -4.734461,0.66791 -0.645606,0.6679 0,-2.44901 0,-2.44901 l 2.58243,-1.11318 z"
       id="path8-2-5" /><path
       style="fill:#000000;fill-opacity:1;stroke-width:14.0042;stroke-linecap:round;stroke-linejoin:round"
       d="m 42.588737,100.5135 1.521718,1.02328 c 0,0 0.532593,0.19678 0.646721,1.14135 0.114129,0.94457 -0.380425,1.22007 0.03806,2.32207 0.418473,1.102 1.483669,1.57428 1.065204,1.77107 -0.418474,0.19678 -3.119515,1.14134 -3.119515,1.14134 l -0.951068,-0.6297 c 0,0 -0.760858,-1.02329 -0.532602,-1.73172 0.228257,-0.70843 0.951076,-0.70843 1.369541,-1.92849 0.418474,-1.22007 0.494562,-2.32207 0.494562,-2.32207 z"
       id="path10-7-9" /><path
       style="fill:#000000;fill-opacity:1;stroke-width:14.0042;stroke-linecap:round;stroke-linejoin:round"
       d="m 49.550569,99.923144 c 0,0 1.141284,1.338136 1.141284,1.771056 0,0.43293 -0.836939,2.24335 -0.913027,2.55821 -0.07612,0.31486 0.608682,1.9285 0.951067,2.24336 0.342385,0.31485 -4.032534,0.0394 -4.032534,0.0394 0,0 -0.494553,-0.551 -0.418465,-1.45621 0.07612,-0.90521 2.282568,-2.71564 2.282568,-2.71564 l 0.68477,-1.25943 z"
       id="path11-7-9" /><path
       style="fill:#000000;fill-opacity:1;stroke-width:14.0042;stroke-linecap:round;stroke-linejoin:round"
       d="m 34.866054,113.93423 2.24452,-2.75499 -2.16844,-0.62971 c 0,0 -0.76085,-1.02328 -0.72281,-1.49557 0.03806,-0.47228 -2.20648,-1.49557 -2.777122,-1.3775 -0.570642,0.11808 0.913027,1.57428 0.913027,1.57428 l 0.380425,3.89636 c 0,0 -0.304345,0.66906 0.380426,0.82649 0.68477,0.15743 1.749974,-0.0394 1.749974,-0.0394 z"
       id="path12-9-8" /><path
       style="fill:#000000;fill-opacity:1;stroke-width:14.0042;stroke-linecap:round;stroke-linejoin:round"
       d="m 31.708499,119.68036 0.494553,0.39356 -0.68477,3.30599 c 0,0 -0.646722,0.8265 -1.902134,0.23614 -1.255413,-0.59035 -2.396697,-2.36142 -2.396697,-2.36142 0,0 -0.342385,-0.74778 -1.141284,-0.98392 -0.798898,-0.23614 -1.293461,-0.70843 0.304337,-0.98393 1.597798,-0.2755 1.826054,0.15743 2.586913,0.551 0.760859,0.39357 2.739082,-0.15742 2.739082,-0.15742 z"
       id="path13-3-1" /><path
       style="fill:#000000;fill-opacity:1;stroke-width:14.0042;stroke-linecap:round;stroke-linejoin:round"
       d="m 31.556331,124.79676 0.532593,3.89635 c 0,0 -1.521709,1.33813 -2.244519,1.02328 -0.722819,-0.31486 -2.891259,-2.12528 -2.891259,-2.12528 0,0 -2.320608,-0.0394 -1.902134,-0.51164 0.418465,-0.47229 1.483669,-1.49556 2.662993,-1.33814 1.179324,0.15743 1.978223,0.2755 2.586913,-0.19679 0.608682,-0.47228 1.255413,-0.74778 1.255413,-0.74778 z"
       id="path14-1-8" /><path
       style="fill:#000000;fill-opacity:1;stroke-width:14.0042;stroke-linecap:round;stroke-linejoin:round"
       d="m 32.203052,129.83446 c 0,0 1.141284,2.99113 1.40759,3.06985 0.266296,0.0787 -0.989116,1.84977 -0.989116,1.84977 l -2.89125,-0.43292 c 0,0 0.190208,-0.90521 -1.597797,-0.62971 -1.788015,0.2755 -1.788015,-0.551 -0.570642,-1.49557 1.217363,-0.94456 2.130391,0.15743 3.005378,-0.551 0.874987,-0.70842 1.635837,-1.81042 1.635837,-1.81042 z"
       id="path15-9-2" /><path
       style="fill:#000000;fill-opacity:1;stroke-width:14.0042;stroke-linecap:round;stroke-linejoin:round"
       d="m 33.76281,114.64266 0.608682,0.23614 c 0,0 -1.179324,2.12528 -1.597798,2.91242 -0.418465,0.78713 -0.456513,0.8265 -1.293452,0.78713 -0.836939,-0.0394 -1.483669,-1.41685 -1.483669,-1.41685 l -1.103244,-2.95177 c 0,0 -1.369541,-1.29879 -1.864094,-0.90521 -0.494554,0.39357 2.967338,-0.11807 2.967338,-0.11807 0,0 -0.456514,-0.15743 0.836939,0.86585 1.293461,1.02329 2.054311,1.02329 2.054311,1.02329 z"
       id="path16-8-6" /><path
       style="fill:#000000;fill-opacity:1;stroke-width:14.0042;stroke-linecap:round;stroke-linejoin:round"
       d="m 37.719264,110.03788 c 0,0 0.190208,0.51165 0.874979,0.11808 0.68477,-0.39357 2.472785,-1.25942 2.510824,-1.45621 0.03806,-0.19679 0.152178,-0.11807 -0.798898,-0.86585 -0.951067,-0.74778 -1.217364,-3.03049 -1.217364,-3.03049 0,0 -1.711926,-1.77107 -2.244528,-1.65299 -0.532602,0.11807 0.380425,1.14135 0.380425,1.14135 0,0 -0.114128,2.24336 -0.418465,2.99114 -0.304345,0.74777 -0.456514,1.14134 -0.152177,1.7317 0.304345,0.59035 1.065204,1.02327 1.065204,1.02327 z"
       id="path17-6-6" /><path
       style="fill:#000000;fill-opacity:1;stroke-width:14.0042;stroke-linecap:round;stroke-linejoin:round"
       d="m 62.256861,104.09498 c 0,0 0.304346,2.59757 -0.380425,3.26663 -0.68477,0.66907 -1.749966,0.51164 -1.978223,1.73171 -0.228256,1.22007 -0.228256,1.14135 -1.864103,-0.0787 -1.635837,-1.22008 -1.44562,-1.49557 -1.44562,-1.49557 0,0 -0.114128,-0.15743 0.989116,-0.78714 1.103235,-0.62971 3.271675,-1.102 3.271675,-1.102 l 0.989115,-0.59035 z"
       id="path19-5-0" /><path
       style="fill:#000000;fill-opacity:1;stroke-width:14.0042;stroke-linecap:round;stroke-linejoin:round"
       d="m 63.093809,114.01295 0.570642,-0.35422 c 0,0 -0.684771,-0.27549 0.304336,-0.78714 0.989116,-0.51164 2.663002,-1.41685 2.663002,-1.41685 l 0.874979,-2.24335 c 0,0 -0.494554,0.43293 -1.521709,0.62972 -1.027156,0.19677 -2.815171,-0.47229 -4.032534,-0.0394 -1.217373,0.43293 -0.951076,1.77106 -0.951076,1.77106 l 1.027155,0.74779 z"
       id="path20-0-3" /><path
       style="fill:#000000;fill-opacity:1;stroke-width:14.0042;stroke-linecap:round;stroke-linejoin:round"
       d="m 63.930747,115.66594 c 0,0 0.608682,-0.15742 1.065196,1.57428 0.456513,1.73171 0.913027,1.77106 1.635846,0.98393 0.72281,-0.78714 3.233635,-0.70843 3.233635,-0.70843 0,0 1.749966,-1.9285 1.065196,-1.88914 -0.684771,0.0394 -1.217364,0.23614 -3.309724,-0.39357 -2.092351,-0.62971 -3.423852,-0.23614 -3.423852,-0.23614 z"
       id="path21-2-8" /><path
       style="fill:#000000;fill-opacity:1;stroke-width:14.0042;stroke-linecap:round;stroke-linejoin:round"
       d="m 66.289404,120.15264 0.304336,4.21119 c 0,0 1.141284,-1.18071 2.20648,-0.94456 1.065204,0.23614 1.103244,0.86586 2.358656,0.19678 1.255413,-0.66907 1.559758,-1.41685 1.559758,-1.41685 0,0 -0.989116,0.19679 -2.054311,-0.35421 -1.065196,-0.551 -2.777122,-1.73171 -2.777122,-1.73171 z"
       id="path22-8-0" /><path
       style="fill:#000000;fill-opacity:1;stroke-width:14.0042;stroke-linecap:round;stroke-linejoin:round"
       d="m 66.517661,125.58391 -0.608691,4.17184 c 0,0 0.798899,-0.70843 1.902143,-0.2755 1.103244,0.43292 2.929298,1.29878 4.108622,0.47229 1.179324,-0.8265 -0.72281,-0.27551 -1.40758,-1.06264 -0.684771,-0.78715 -1.940183,-2.83371 -1.940183,-2.83371 l -1.217373,-0.31486 z"
       id="path23-6-1" /><path
       style="fill:#000000;fill-opacity:1;stroke-width:14.0042;stroke-linecap:round;stroke-linejoin:round"
       d="m 65.376377,131.01517 c 0,0 1.255412,-0.2755 1.521709,-0.0787 0.266296,0.19679 1.179324,2.63692 1.179324,2.63692 0,0 0.380433,1.29878 0.874987,1.61364 0.494553,0.31486 1.217364,1.02328 1.217364,1.02328 l -2.89125,0.0787 c 0,0 -1.369541,-1.84978 -1.978223,-1.84978 -0.608682,0 -1.597797,-0.0787 -1.597797,-0.0787 z"
       id="path24-0-2" /><path
       style="fill:#000000;fill-opacity:1;stroke-width:14.0042;stroke-linecap:round;stroke-linejoin:round"
       d="m 60.659064,138.02072 2.016271,0.86585 c 0,0 0.798899,2.12528 1.445629,2.47949 0.646722,0.35422 2.472776,0.35422 2.472776,0.35422 l -1.217363,-1.18072 c 0,0 0.114128,-3.69955 -0.798899,-4.44733 -0.913027,-0.74779 -1.255413,-0.66907 -1.864103,-0.0787 -0.608682,0.59036 -2.054311,2.00721 -2.054311,2.00721 z"
       id="path25-2-5" /><path
       style="fill:#000000;fill-opacity:1;stroke-width:14.0042;stroke-linecap:round;stroke-linejoin:round"
       d="m 56.322184,141.16928 c 0,0 2.548874,-1.88914 3.271684,-1.69235 0.72281,0.19678 1.673886,0.70842 1.141284,2.63691 -0.532602,1.9285 -0.304345,3.38471 -0.03806,3.81764 0.266296,0.43292 -1.597798,-0.70843 -1.597798,-0.70843 0,0 -0.532602,0.31486 -0.68477,-0.70842 -0.152169,-1.02329 -0.494554,-2.40079 -0.494554,-2.40079 z"
       id="path26-4-0" /><path
       style="fill:#000000;fill-opacity:1;stroke-width:14.0042;stroke-linecap:round;stroke-linejoin:round"
       d="m 51.528792,142.66484 c 0,0 1.407589,1.02329 1.36954,1.29878 -0.03806,0.2755 -0.494553,2.59757 -0.114119,3.14857 0.380425,0.551 1.521709,2.40077 1.597789,1.61363 0.07612,-0.78713 0,-1.84977 0.532602,-2.87306 0.532602,-1.02327 0.913027,-1.33813 0.989116,-1.96784 0.07611,-0.62972 0.03806,-2.00721 -0.456514,-2.08593 -0.494562,-0.0787 -2.548874,0.59036 -2.548874,0.59036 z"
       id="path27-8-9" /><path
       style="fill:#000000;fill-opacity:1;stroke-width:14.0042;stroke-linecap:round;stroke-linejoin:round"
       d="m 46.393023,142.66484 4.108622,0.19679 c 0,0 0.836939,1.29878 -0.03806,2.28271 -0.874987,0.98393 -2.206488,1.81042 -2.510833,2.99112 -0.304337,1.18072 -0.152168,2.36143 -0.951067,0.51165 -0.798899,-1.84978 -0.342385,-2.79435 -0.03806,-3.34534 0.304346,-0.551 0.456514,-0.94458 0.152169,-1.33815 -0.304337,-0.39356 -0.722811,-1.29878 -0.722811,-1.29878 z"
       id="path28-6-4" /><path
       style="fill:#000000;fill-opacity:1;stroke-width:14.0042;stroke-linecap:round;stroke-linejoin:round"
       d="m 41.675709,140.81506 0.494563,0.74779 c 0,0 2.701033,0.66906 3.043418,0.90521 0.342385,0.23615 0.418474,2.04657 0,2.20399 -0.418465,0.15744 -3.043418,1.22007 -3.57602,2.36142 -0.532603,1.14136 -0.456514,1.25943 -1.103244,0.31486 -0.646722,-0.94457 0.380433,-2.44014 0.836947,-2.99114 0.456514,-0.55099 0.798899,-1.02327 0.68477,-1.57428 -0.114128,-0.551 -0.456513,-1.06263 -0.456513,-1.06263 z"
       id="path29-5-7" /><path
       style="fill:#000000;fill-opacity:1;stroke-width:14.0042;stroke-linecap:round;stroke-linejoin:round"
       d="m 34.143235,134.36052 2.548874,3.22727 c 0,0 -0.646731,1.77106 -1.179333,1.81043 -0.532593,0.0394 -3.766237,-0.19679 -3.766237,-0.19679 0,0 -0.951067,0.35421 -1.483669,0.70843 -0.532594,0.35421 -0.532594,-0.43293 0,-1.41686 0.532602,-0.98392 2.624953,-1.61364 2.624953,-1.61364 0,0 0.951076,-0.47228 0.951076,-0.9052 0,-0.43293 -0.152177,-0.98393 -0.152177,-0.98393 z"
       id="path30-0-8" /></g><g
     inkscape:groupmode="layer"
     id="layer5"
     inkscape:label="Moon"><path
       style="fill:#006a97;fill-opacity:1;stroke-width:14.0042;stroke-linecap:round;stroke-linejoin:round"
       d="m 160.83402,156.02968 3.69014,1.29879 c 0,0 -0.26629,-1.61365 -0.0761,-2.204 0.19022,-0.59036 1.29346,-1.61364 1.29346,-1.61364 l -0.0381,-1.81042 -0.45652,-1.18071 -1.40758,2.00721 c 0,0 -2.70103,1.22006 -2.85321,1.65299 -0.15217,0.43293 -0.15217,1.84978 -0.15217,1.84978 z"
       id="path18-9" /><ellipse
       style="fill:#006e98;fill-opacity:1;stroke-width:14.8196;stroke-linecap:round;stroke-linejoin:round"
       id="path1-8"
       cx="158.02892"
       cy="173.95947"
       rx="15.817386"
       ry="16.363808" /><text
       xml:space="preserve"
       style="font-size:18.2565px;text-align:start;writing-mode:lr-tb;direction:ltr;text-anchor:start;fill:#000000;fill-opacity:1;stroke-width:33.7782;stroke-linecap:round;stroke-linejoin:round"
       x="154.36322"
       y="178.19292"
       id="text4-2-2"
       transform="scale(0.98316225,1.0171261)"><tspan
         sodipodi:role="line"
         id="tspan4-1-0"
         style="fill:#000000;fill-opacity:1;stroke-width:33.7782"
         x="154.36322"
         y="178.19292">N</tspan></text><path
       style="fill:#006a97;fill-opacity:1;stroke-width:14.0042;stroke-linecap:round;stroke-linejoin:round"
       d="m 146.51559,187.65162 4.08886,2.89429 -1.72162,2.449 c 0,0 -4.08886,0 -4.73447,0.66791 -0.6456,0.66791 0,-2.44901 0,-2.44901 l 2.58244,-1.11318 z"
       id="path8-2" /><path
       style="fill:#006d9a;fill-opacity:1;stroke-width:14.0042;stroke-linecap:round;stroke-linejoin:round"
       d="m 151.81176,149.95398 1.52172,1.02327 c 0,0 0.53259,0.19679 0.64672,1.14136 0.11413,0.94457 -0.38042,1.22006 0.0381,2.32207 0.41847,1.10199 1.48367,1.57427 1.0652,1.77106 -0.41847,0.19678 -3.11951,1.14135 -3.11951,1.14135 l -0.95107,-0.62971 c 0,0 -0.76086,-1.02329 -0.5326,-1.73171 0.22826,-0.70843 0.95108,-0.70843 1.36954,-1.92849 0.41847,-1.22008 0.49456,-2.32207 0.49456,-2.32207 z"
       id="path10-7" /><path
       style="fill:#006b98;fill-opacity:1;stroke-width:14.0042;stroke-linecap:round;stroke-linejoin:round"
       d="m 158.7736,149.36362 c 0,0 1.14128,1.33814 1.14128,1.77106 0,0.43293 -0.83694,2.24335 -0.91303,2.55821 -0.0761,0.31486 0.60868,1.9285 0.95107,2.24336 0.34238,0.31485 -4.03253,0.0394 -4.03253,0.0394 0,0 -0.49456,-0.551 -0.41847,-1.45621 0.0761,-0.90521 2.28257,-2.71564 2.28257,-2.71564 l 0.68477,-1.25943 z"
       id="path11-7" /><path
       style="fill:#006b98;fill-opacity:1;stroke-width:14.0042;stroke-linecap:round;stroke-linejoin:round"
       d="m 144.08908,163.37471 2.24452,-2.75499 -2.16844,-0.62971 c 0,0 -0.76085,-1.02328 -0.72281,-1.49556 0.0381,-0.47229 -2.20648,-1.49557 -2.77712,-1.3775 -0.57064,0.11807 0.91303,1.57427 0.91303,1.57427 l 0.38042,3.89636 c 0,0 -0.30434,0.66906 0.38043,0.82649 0.68477,0.15743 1.74997,-0.0394 1.74997,-0.0394 z"
       id="path12-9" /><path
       style="fill:#006c9a;fill-opacity:1;stroke-width:14.0042;stroke-linecap:round;stroke-linejoin:round"
       d="m 140.93153,169.12084 0.49455,0.39356 -0.68477,3.30599 c 0,0 -0.64672,0.8265 -1.90214,0.23615 -1.25541,-0.59036 -2.39669,-2.36142 -2.39669,-2.36142 0,0 -0.34239,-0.74779 -1.14129,-0.98393 -0.79889,-0.23614 -1.29346,-0.70842 0.30434,-0.98393 1.5978,-0.27549 1.82606,0.15744 2.58691,0.551 0.76086,0.39357 2.73909,-0.15742 2.73909,-0.15742 z"
       id="path13-3" /><path
       style="fill:#006a98;fill-opacity:1;stroke-width:14.0042;stroke-linecap:round;stroke-linejoin:round"
       d="m 140.77936,174.23725 0.53259,3.89634 c 0,0 -1.52171,1.33814 -2.24452,1.02329 -0.72282,-0.31486 -2.89126,-2.12528 -2.89126,-2.12528 0,0 -2.32061,-0.0394 -1.90213,-0.51165 0.41846,-0.47228 1.48367,-1.49556 2.66299,-1.33814 1.17933,0.15743 1.97822,0.2755 2.58691,-0.19678 0.60869,-0.47229 1.25542,-0.74778 1.25542,-0.74778 z"
       id="path14-1" /><path
       style="fill:#006a98;fill-opacity:1;stroke-width:14.0042;stroke-linecap:round;stroke-linejoin:round"
       d="m 141.42608,179.27495 c 0,0 1.14128,2.99113 1.40759,3.06984 0.2663,0.0788 -0.98912,1.84978 -0.98912,1.84978 l -2.89125,-0.43292 c 0,0 0.19021,-0.90522 -1.59779,-0.62972 -1.78802,0.2755 -1.78802,-0.55099 -0.57065,-1.49556 1.21737,-0.94457 2.13039,0.15742 3.00538,-0.551 0.87499,-0.70843 1.63584,-1.81042 1.63584,-1.81042 z"
       id="path15-9" /><path
       style="fill:#006a97;fill-opacity:1;stroke-width:14.0042;stroke-linecap:round;stroke-linejoin:round"
       d="m 142.98584,164.08314 0.60868,0.23614 c 0,0 -1.17933,2.12528 -1.5978,2.91242 -0.41846,0.78714 -0.45651,0.8265 -1.29345,0.78714 -0.83694,-0.0394 -1.48367,-1.41686 -1.48367,-1.41686 l -1.10324,-2.95177 c 0,0 -1.36955,-1.29878 -1.8641,-0.90521 -0.49455,0.39357 2.96734,-0.11807 2.96734,-0.11807 0,0 -0.45651,-0.15742 0.83694,0.86585 1.29346,1.02329 2.05431,1.02329 2.05431,1.02329 z"
       id="path16-8"
       sodipodi:nodetypes="ccssccscscc" /><path
       style="fill:#006c9a;fill-opacity:1;stroke-width:14.0042;stroke-linecap:round;stroke-linejoin:round"
       d="m 146.94229,159.47837 c 0,0 0.19021,0.51164 0.87498,0.11807 0.68477,-0.39357 2.47278,-1.25942 2.51082,-1.45621 0.0381,-0.19679 0.15218,-0.11807 -0.79889,-0.86585 -0.95107,-0.74779 -1.21737,-3.03049 -1.21737,-3.03049 0,0 -1.71192,-1.77107 -2.24453,-1.653 -0.5326,0.11807 0.38043,1.14136 0.38043,1.14136 0,0 -0.11413,2.24335 -0.41847,2.99113 -0.30434,0.74778 -0.45651,1.14136 -0.15217,1.73171 0.30434,0.59036 1.0652,1.02328 1.0652,1.02328 z"
       id="path17-6" /><path
       style="fill:#006a98;fill-opacity:1;stroke-width:14.0042;stroke-linecap:round;stroke-linejoin:round"
       d="m 171.47989,153.53546 c 0,0 0.30434,2.59756 -0.38043,3.26664 -0.68477,0.66906 -1.74996,0.51163 -1.97822,1.7317 -0.22826,1.22007 -0.22826,1.14136 -1.8641,-0.0787 -1.63584,-1.22007 -1.44562,-1.49556 -1.44562,-1.49556 0,0 -0.11413,-0.15743 0.98911,-0.78715 1.10324,-0.62971 3.27168,-1.10199 3.27168,-1.10199 l 0.98911,-0.59036 z"
       id="path19-5" /><path
       style="fill:#006a97;fill-opacity:1;stroke-width:14.0042;stroke-linecap:round;stroke-linejoin:round"
       d="m 172.31684,163.45343 0.57064,-0.35421 c 0,0 -0.68477,-0.2755 0.30433,-0.78715 0.98912,-0.51164 2.66301,-1.41685 2.66301,-1.41685 l 0.87497,-2.24335 c 0,0 -0.49455,0.43293 -1.5217,0.62972 -1.02716,0.19678 -2.81517,-0.47229 -4.03254,-0.0394 -1.21737,0.43293 -0.95107,1.77106 -0.95107,1.77106 l 1.02715,0.74779 z"
       id="path20-0" /><path
       style="fill:#006c9a;fill-opacity:1;stroke-width:14.0042;stroke-linecap:round;stroke-linejoin:round"
       d="m 173.15377,165.10642 c 0,0 0.60869,-0.15742 1.0652,1.57428 0.45651,1.73171 0.91303,1.77107 1.63585,0.98393 0.72281,-0.78714 3.23363,-0.70842 3.23363,-0.70842 0,0 1.74997,-1.9285 1.0652,-1.88915 -0.68477,0.0394 -1.21737,0.23614 -3.30973,-0.39357 -2.09235,-0.62971 -3.42385,-0.23614 -3.42385,-0.23614 z"
       id="path21-2" /><path
       style="fill:#006b98;fill-opacity:1;stroke-width:14.0042;stroke-linecap:round;stroke-linejoin:round"
       d="m 175.51243,169.59312 0.30434,4.2112 c 0,0 1.14128,-1.18071 2.20648,-0.94457 1.0652,0.23614 1.10324,0.86586 2.35865,0.19679 1.25542,-0.66908 1.55976,-1.41686 1.55976,-1.41686 0,0 -0.98911,0.19679 -2.05431,-0.35421 -1.0652,-0.551 -2.77712,-1.73171 -2.77712,-1.73171 z"
       id="path22-8" /><path
       style="fill:#006c9b;fill-opacity:1;stroke-width:14.0042;stroke-linecap:round;stroke-linejoin:round"
       d="m 175.74069,175.02439 -0.60869,4.17184 c 0,0 0.7989,-0.70843 1.90214,-0.2755 1.10324,0.43292 2.9293,1.29878 4.10862,0.47229 1.17933,-0.8265 -0.72281,-0.27551 -1.40758,-1.06264 -0.68477,-0.78715 -1.94018,-2.83371 -1.94018,-2.83371 l -1.21737,-0.31486 z"
       id="path23-6" /><path
       style="fill:#006c9b;fill-opacity:1;stroke-width:14.0042;stroke-linecap:round;stroke-linejoin:round"
       d="m 174.5994,180.45566 c 0,0 1.25542,-0.27551 1.52171,-0.0788 0.2663,0.19679 1.17933,2.63692 1.17933,2.63692 0,0 0.38043,1.29878 0.87498,1.61364 0.49456,0.31486 1.21737,1.02328 1.21737,1.02328 l -2.89125,0.0788 c 0,0 -1.36954,-1.84977 -1.97823,-1.84977 -0.60868,0 -1.59779,-0.0788 -1.59779,-0.0788 z"
       id="path24-0" /><path
       style="fill:#006c9a;fill-opacity:1;stroke-width:14.0042;stroke-linecap:round;stroke-linejoin:round"
       d="m 169.88209,187.4612 2.01627,0.86585 c 0,0 0.7989,2.12528 1.44563,2.47949 0.64672,0.35422 2.47278,0.35422 2.47278,0.35422 l -1.21737,-1.18071 c 0,0 0.11413,-3.69956 -0.7989,-4.44734 -0.91302,-0.74779 -1.25541,-0.66907 -1.8641,-0.0787 -0.60868,0.59035 -2.05431,2.0072 -2.05431,2.0072 z"
       id="path25-2" /><path
       style="fill:#006c9b;fill-opacity:1;stroke-width:14.0042;stroke-linecap:round;stroke-linejoin:round"
       d="m 165.54521,190.60977 c 0,0 2.54887,-1.88915 3.27168,-1.69236 0.72282,0.19679 1.67389,0.70842 1.14129,2.63691 -0.5326,1.9285 -0.30435,3.38471 -0.0381,3.81764 0.2663,0.43292 -1.5978,-0.70843 -1.5978,-0.70843 0,0 -0.5326,0.31486 -0.68477,-0.70842 -0.15216,-1.02329 -0.49455,-2.40079 -0.49455,-2.40079 z"
       id="path26-4" /><path
       style="fill:#006a97;fill-opacity:1;stroke-width:14.0042;stroke-linecap:round;stroke-linejoin:round"
       d="m 160.75182,192.10533 c 0,0 1.40759,1.02328 1.36954,1.29878 -0.0381,0.27549 -0.49455,2.59756 -0.11412,3.14856 0.38042,0.551 1.52171,2.40078 1.59779,1.61363 0.0761,-0.78713 0,-1.84977 0.5326,-2.87306 0.5326,-1.02327 0.91303,-1.33813 0.98912,-1.96784 0.0761,-0.62972 0.038,-2.00721 -0.45652,-2.08593 -0.49456,-0.0787 -2.54887,0.59036 -2.54887,0.59036 z"
       id="path27-8" /><path
       style="fill:#006a97;fill-opacity:1;stroke-width:14.0042;stroke-linecap:round;stroke-linejoin:round"
       d="m 155.61605,192.10533 4.10862,0.19678 c 0,0 0.83694,1.29878 -0.0381,2.28271 -0.87498,0.98393 -2.20648,1.81043 -2.51083,2.99113 -0.30434,1.18071 -0.15217,2.36143 -0.95107,0.51164 -0.7989,-1.84978 -0.34238,-2.79435 -0.038,-3.34534 0.30434,-0.551 0.45651,-0.94458 0.15216,-1.33814 -0.30433,-0.39357 -0.72281,-1.29878 -0.72281,-1.29878 z"
       id="path28-6" /><path
       style="fill:#006a97;fill-opacity:1;stroke-width:14.0042;stroke-linecap:round;stroke-linejoin:round"
       d="m 150.89874,190.25554 0.49456,0.74779 c 0,0 2.70103,0.66907 3.04342,0.90522 0.34238,0.23614 0.41847,2.04656 0,2.20398 -0.41847,0.15744 -3.04342,1.22007 -3.57602,2.36142 -0.53261,1.14136 -0.45652,1.25943 -1.10325,0.31486 -0.64672,-0.94457 0.38044,-2.44013 0.83695,-2.99114 0.45651,-0.55099 0.7989,-1.02327 0.68477,-1.57427 -0.11413,-0.551 -0.45651,-1.06264 -0.45651,-1.06264 z"
       id="path29-5" /><path
       style="fill:#006c9b;fill-opacity:1;stroke-width:14.0042;stroke-linecap:round;stroke-linejoin:round"
       d="m 143.36626,183.801 2.54888,3.22727 c 0,0 -0.64674,1.77107 -1.17934,1.81043 -0.53259,0.0394 -3.76623,-0.19679 -3.76623,-0.19679 0,0 -0.95107,0.35421 -1.48367,0.70843 -0.5326,0.35421 -0.5326,-0.43293 0,-1.41685 0.5326,-0.98393 2.62495,-1.61365 2.62495,-1.61365 0,0 0.95108,-0.47228 0.95108,-0.9052 0,-0.43293 -0.15218,-0.98393 -0.15218,-0.98393 z"
       id="path30-0" /></g><g
     inkscape:groupmode="layer"
     id="layer2"
     inkscape:label="edge"
     style="display:inline" /></svg>
